<?xml version="1.0" standalone="no"?>
<!DOCTYPE svg PUBLIC "-//W3C//DTD SVG 20010904//EN"
 "http://www.w3.org/TR/2001/REC-SVG-20010904/DTD/svg10.dtd">
<svg version="1.0" xmlns="http://www.w3.org/2000/svg"
 width="400.000000pt" height="400.000000pt" viewBox="0 0 400.000000 400.000000"
 preserveAspectRatio="xMidYMid meet">
<metadata>
Created by potrace 1.11, written by Peter Selinger 2001-2013
</metadata>
<g transform="translate(0.000000,400.000000) scale(0.100000,-0.100000)"
fill="#000000" stroke="none">
<path d="M651 3984 c0 -11 3 -14 6 -6 3 7 2 16 -1 19 -3 4 -6 -2 -5 -13z"/>
<path d="M2419 3981 l35 -18 -37 -5 c-25 -3 -37 0 -37 8 0 7 -4 16 -10 19 -6
4 -10 -5 -10 -19 0 -16 6 -26 15 -26 8 0 15 -4 15 -10 0 -5 -5 -10 -11 -10 -5
0 -7 -5 -4 -10 4 -6 11 -8 16 -5 5 4 9 0 9 -7 0 -7 9 -2 19 11 10 13 24 21 32
18 10 -4 8 -6 -4 -6 -25 -1 -16 -24 10 -26 23 -2 31 14 39 73 l4 32 -57 0 -58
-1 34 -18z m1 -41 c0 -5 -4 -10 -10 -10 -5 0 -10 5 -10 10 0 6 5 10 10 10 6 0
10 -4 10 -10z"/>
<path d="M2570 3990 c0 -21 29 -80 39 -80 15 0 14 14 -6 55 -16 34 -33 46 -33
25z"/>
<path d="M2706 3965 c11 -27 12 -40 3 -57 -11 -20 0 -37 24 -38 4 0 6 -6 5
-12 -7 -32 100 -7 128 31 7 8 13 10 17 4 7 -12 67 -5 67 8 0 5 3 8 8 7 17 -3
111 15 107 22 -2 3 26 12 63 19 37 7 83 18 103 23 29 8 43 7 72 -7 20 -9 43
-15 51 -12 9 4 17 -2 21 -14 9 -28 38 -24 57 8 11 19 31 32 60 39 34 10 -40
12 -379 13 l-422 1 15 -35z m164 -5 c0 -5 -4 -10 -10 -10 -5 0 -10 5 -10 10 0
6 5 10 10 10 6 0 10 -4 10 -10z"/>
<path d="M3660 3990 c19 -13 30 -13 30 0 0 6 -10 10 -22 10 -19 0 -20 -2 -8
-10z"/>
<path d="M2325 3970 c-3 -5 -1 -10 4 -10 6 0 11 5 11 10 0 6 -2 10 -4 10 -3 0
-8 -4 -11 -10z"/>
<path d="M2168 3953 c7 -3 16 -2 19 1 4 3 -2 6 -13 5 -11 0 -14 -3 -6 -6z"/>
<path d="M2265 3950 c3 -5 8 -10 11 -10 2 0 4 5 4 10 0 6 -5 10 -11 10 -5 0
-7 -4 -4 -10z"/>
<path d="M2337 3914 c3 -7 9 -14 14 -14 14 0 10 17 -5 23 -10 4 -13 1 -9 -9z"/>
<path d="M3657 3916 c-3 -8 -2 -18 3 -21 13 -8 20 9 11 24 -6 10 -10 9 -14 -3z"/>
<path d="M3392 3901 c2 -7 7 -12 11 -12 12 1 9 15 -3 20 -7 2 -11 -2 -8 -8z"/>
<path d="M3658 3862 c-3 -10 1 -23 8 -30 19 -18 21 -15 16 18 -5 33 -17 40
-24 12z"/>
<path d="M3393 3858 c2 -7 0 -24 -5 -37 l-9 -24 -28 27 c-23 22 -31 25 -37 14
-21 -33 -102 -64 -185 -72 -26 -2 -68 -11 -95 -20 -27 -8 -76 -22 -109 -31
-33 -9 -96 -27 -140 -40 -140 -41 -198 -55 -208 -48 -18 11 -447 13 -447 2 0
-6 -5 -7 -12 -3 -16 10 -58 12 -64 2 -3 -4 -15 -3 -28 2 -13 5 -29 4 -37 -1
-20 -12 -29 -11 -29 5 0 10 -20 13 -85 13 -49 0 -85 -4 -85 -10 0 -5 17 -7 40
-4 45 6 55 -9 13 -19 -16 -3 -43 -10 -62 -15 -19 -4 -38 -6 -42 -3 -4 2 -32
-5 -61 -16 -69 -28 -151 -50 -160 -44 -5 3 -8 -1 -8 -8 0 -13 -21 -29 -107
-82 -26 -16 -51 -42 -64 -68 -23 -44 -79 -132 -101 -158 -7 -8 -18 -29 -24
-45 -6 -17 -15 -29 -20 -28 -6 1 -16 -8 -24 -20 -12 -21 -12 -21 6 -7 10 8 3
-3 -17 -26 -23 -26 -38 -55 -42 -82 -5 -30 -15 -46 -37 -62 -48 -34 -63 -72
-55 -144 3 -33 6 -98 6 -142 -1 -45 5 -99 12 -120 12 -33 11 -44 -5 -87 -12
-32 -16 -60 -12 -83 4 -22 2 -34 -5 -34 -19 0 -12 -18 10 -25 11 -4 18 -12 16
-18 -6 -19 -79 -57 -109 -57 -15 0 -30 -4 -33 -10 -8 -13 31 -13 80 2 103 29
132 2 70 -67 -27 -31 -35 -48 -34 -75 1 -19 -2 -43 -6 -54 -7 -15 -4 -17 11
-13 66 20 71 19 78 -8 4 -16 11 -23 18 -19 8 5 9 2 5 -9 -4 -10 -10 -24 -14
-34 -5 -12 -3 -14 7 -8 10 6 12 4 6 -11 -15 -34 -19 -137 -5 -129 8 5 9 1 4
-14 -4 -12 -2 -21 4 -21 7 0 7 -8 1 -26 -8 -20 -7 -25 2 -21 7 2 12 10 10 16
-2 9 3 9 19 0 12 -6 19 -7 16 -2 -4 6 5 20 19 32 14 13 39 50 54 84 21 46 30
58 35 45 6 -15 10 -15 33 7 15 14 30 25 35 25 4 0 5 6 1 13 -6 9 -4 9 8 -1 13
-10 17 -10 20 0 4 10 8 9 20 -2 12 -13 13 -18 2 -28 -8 -8 -15 -8 -19 -2 -7
12 -25 4 -25 -11 0 -5 7 -9 15 -9 9 0 18 -7 21 -15 4 -8 15 -15 26 -15 19 0
20 -5 15 -61 -4 -51 -2 -64 14 -80 23 -23 59 -25 59 -3 0 9 -13 46 -30 84 -16
37 -35 92 -41 121 -13 60 -7 203 10 223 6 7 7 17 3 21 -4 5 -1 5 6 1 8 -5 19
8 34 41 11 26 42 80 67 118 26 39 50 77 53 86 4 9 23 19 48 23 23 4 38 11 35
16 -12 19 23 21 105 6 45 -9 86 -14 90 -11 5 3 11 -3 15 -14 4 -13 12 -17 26
-14 11 3 16 9 11 12 -16 10 12 31 40 31 9 0 9 3 1 11 -6 6 -9 18 -6 26 4 9 -8
27 -30 47 -37 32 -37 33 -104 24 -70 -9 -125 -29 -156 -56 -12 -11 -21 -12
-28 -5 -12 12 30 111 56 133 17 14 73 11 192 -11 79 -14 95 -9 69 20 -22 24
-88 41 -160 41 -34 0 -56 4 -56 11 0 6 23 36 51 67 34 37 71 98 115 186 77
156 121 223 172 265 22 19 123 38 141 27 5 -3 26 -8 46 -11 20 -2 42 -8 49
-13 6 -5 36 -17 66 -28 30 -10 62 -24 71 -31 8 -7 20 -13 25 -13 35 -2 134
-147 167 -245 5 -16 11 -88 12 -160 1 -71 8 -173 15 -225 12 -90 10 -214 -6
-450 -6 -86 -6 -86 20 -98 15 -7 34 -28 42 -47 16 -38 21 -116 10 -156 -10
-37 -78 -169 -87 -169 -11 0 -47 53 -64 94 -14 32 -35 49 -35 29 0 -5 -18 -28
-40 -52 -22 -24 -42 -58 -44 -75 -3 -17 -10 -62 -17 -101 -15 -93 -8 -157 27
-235 27 -59 29 -76 31 -190 2 -167 4 -185 14 -130 4 25 9 88 9 140 1 60 5 88
11 78 5 -8 10 -29 11 -47 1 -17 5 -31 9 -31 3 0 11 -30 17 -68 11 -64 8 -323
-3 -342 -13 -21 -24 -336 -13 -368 7 -20 -5 -32 -15 -14 -2 4 -2 2 -1 -5 2 -6
-4 -17 -12 -24 -8 -7 -23 -28 -32 -48 -9 -20 -23 -37 -31 -39 -12 -3 -12 0 -2
12 7 8 10 20 6 26 -3 5 1 10 9 10 9 0 16 3 16 8 0 4 -11 7 -24 7 -13 0 -23 -2
-21 -4 2 -2 -3 -10 -11 -18 -8 -9 -18 -13 -21 -9 -3 3 -13 0 -21 -6 -8 -7 -40
-11 -79 -10 -46 1 -69 -2 -79 -13 -11 -11 -12 -15 -3 -15 7 0 9 -3 5 -7 -4 -5
-14 1 -23 12 -15 20 -15 20 -9 -2 8 -25 -11 -41 -27 -23 -9 10 -9 11 1 6 8 -5
12 0 12 13 0 24 -38 29 -58 9 -7 -7 -12 -8 -12 -3 0 6 -29 11 -64 12 -53 2
-65 -1 -68 -14 -3 -17 -58 -28 -58 -11 0 4 11 6 25 4 29 -5 31 -1 10 21 -9 8
-33 16 -55 17 -22 0 -40 6 -40 12 0 6 -6 11 -14 11 -8 0 -14 -5 -13 -10 1 -5
-4 -12 -12 -15 -10 -3 -12 0 -8 12 5 13 -5 22 -16 14 -2 -2 -15 5 -30 15 -15
10 -38 22 -52 27 -22 8 -24 7 -21 -13 3 -12 5 -28 5 -35 1 -7 5 -11 10 -8 7 4
8 -29 3 -56 -3 -12 -32 -10 -32 2 0 5 3 9 8 7 8 -2 12 6 12 24 0 8 -4 9 -13 0
-16 -13 -28 -5 -21 14 3 7 -2 15 -10 18 -10 4 -16 19 -16 41 0 30 -4 35 -30
41 -17 4 -28 10 -26 14 3 4 -11 6 -30 6 -19 -1 -32 0 -29 3 2 3 -11 23 -30 45
-37 43 -61 105 -69 175 -3 24 -9 49 -14 55 -5 7 -15 35 -21 62 -7 28 -18 63
-24 79 -13 36 -18 106 -7 106 5 0 -4 35 -20 79 -53 151 -47 303 16 376 18 21
24 24 19 10 -13 -35 -17 -159 -7 -185 8 -19 9 -9 5 41 -6 71 9 134 52 219 13
25 26 62 30 83 6 35 5 37 -22 37 -61 -1 -106 -19 -162 -68 l-57 -50 -54 65
c-30 36 -63 77 -74 92 -10 14 -34 38 -53 53 -42 32 -50 29 -108 -45 -22 -28
-55 -67 -73 -86 -18 -20 -39 -49 -46 -66 -7 -16 -30 -50 -50 -73 -20 -24 -36
-55 -36 -68 0 -15 22 -51 55 -91 30 -37 55 -69 55 -72 -1 -17 -34 -44 -91 -74
-35 -18 -89 -49 -119 -67 -109 -65 -139 -80 -164 -80 -14 0 -26 -4 -26 -9 0
-5 -11 -9 -25 -10 -47 -3 -54 -4 -50 -12 6 -8 -22 -21 -51 -23 -17 -1 -21 4
-19 20 1 15 -2 21 -11 17 -10 -4 -14 4 -14 26 0 45 -29 53 -177 49 l-123 -3 0
-114 c0 -113 0 -113 23 -106 12 3 49 8 82 10 33 3 70 7 82 10 12 3 25 0 28 -5
4 -6 11 -7 17 -4 12 8 13 9 -29 -76 -37 -76 -96 -212 -111 -255 -10 -29 -10
-29 -11 -4 -1 14 -7 31 -13 37 -10 10 -10 14 0 21 9 5 9 11 -3 27 -8 10 -15
29 -15 40 0 12 -8 25 -17 29 -17 7 -16 8 2 15 11 5 14 9 8 9 -7 1 -13 8 -13
17 0 8 4 12 10 9 6 -4 10 7 10 27 0 25 -3 29 -10 18 -9 -14 -11 -13 -14 19 0
8 -6 16 -13 18 -9 3 -12 -75 -13 -331 l0 -336 805 0 c637 0 805 3 805 13 0 8
3 8 8 1 4 -5 25 -11 47 -13 l40 -2 -23 21 c-12 11 -22 23 -22 26 0 9 24 -9 37
-27 11 -15 36 -17 230 -17 155 0 220 3 225 11 6 9 8 9 8 0 0 -7 7 -13 16 -13
24 0 11 23 -17 31 -23 7 -24 7 -1 8 12 1 30 -8 39 -19 17 -19 32 -20 910 -20
l893 0 0 1467 c0 808 -4 1474 -9 1481 -7 11 -9 11 -14 -2 -5 -12 -12 -14 -32
-6 -18 7 -25 6 -25 -3 0 -8 -3 -8 -9 2 -5 7 -14 10 -20 6 -17 -10 -152 -13
-178 -4 -12 5 -25 4 -28 -1 -7 -11 -74 -8 -92 3 -9 5 -13 3 -13 -8 0 -13 -4
-14 -21 -5 -11 7 -27 9 -35 6 -8 -3 -14 -2 -14 2 0 5 -18 8 -40 7 -22 0 -40
-3 -40 -6 0 -6 -31 -7 -275 -6 -97 0 -145 2 -155 7 -3 1 -17 1 -32 0 -18 -1
-28 4 -28 12 0 7 -7 26 -15 41 -8 15 -12 34 -9 41 3 8 1 17 -5 21 -16 9 -13
52 4 59 9 3 15 0 15 -9 0 -12 5 -12 27 -4 20 7 29 7 31 -1 3 -8 8 -8 17 0 17
14 75 21 75 10 0 -6 10 -6 25 0 16 6 25 6 25 0 0 -5 7 -7 15 -4 8 4 23 3 33
-1 26 -12 85 -14 105 -3 10 5 24 6 30 1 7 -5 28 -8 47 -8 19 1 38 -4 42 -10 5
-6 8 -3 8 8 0 15 3 16 22 6 15 -8 23 -9 26 -1 2 7 13 7 33 2 20 -6 27 -5 23 2
-4 6 1 8 12 6 11 -2 18 -11 16 -19 -3 -11 1 -10 14 3 15 15 19 15 40 1 15 -10
24 -11 24 -4 0 6 5 11 10 11 6 0 10 -7 10 -16 0 -14 3 -14 16 -3 13 10 17 10
25 -2 6 -9 9 -10 9 -2 0 7 10 12 23 11 12 0 34 3 50 7 17 4 27 3 27 -3 0 -13
52 -11 62 2 4 6 13 4 22 -3 14 -11 16 -11 16 4 0 16 2 17 18 3 9 -9 22 -13 29
-11 6 2 14 -1 18 -6 3 -6 15 -11 26 -11 18 0 19 9 19 219 0 150 -4 222 -11
227 -8 4 -7 9 2 15 10 6 8 9 -8 9 -13 0 -23 -4 -23 -9 0 -5 -9 -13 -20 -16
-11 -3 -20 -13 -20 -21 0 -8 -4 -13 -9 -10 -5 4 -12 0 -15 -6 -5 -10 -7 -10
-12 -1 -4 8 -13 4 -30 -14 -15 -16 -24 -21 -24 -12 -1 10 -6 8 -16 -6 -15 -19
-16 -19 -12 13 3 17 1 32 -4 32 -4 0 -8 -7 -8 -15 0 -8 -4 -15 -10 -15 -5 0
-10 8 -10 18 0 10 -5 23 -11 29 -7 7 -4 12 10 16 13 3 19 1 15 -5 -4 -6 -1 -9
7 -6 7 2 16 15 19 29 6 22 -3 44 -47 114 -7 11 -19 34 -27 51 -8 17 -19 34
-24 38 -6 4 -9 15 -7 26 4 22 -6 31 -41 35 -20 2 -24 -2 -24 -24 0 -21 -2 -23
-10 -11 -9 13 -12 13 -24 -2 -7 -10 -16 -15 -19 -11 -4 3 -2 12 4 20 15 17 -1
16 -25 -2 -13 -10 -15 -15 -6 -15 7 0 10 -3 7 -6 -11 -11 -36 16 -30 32 8 21
-7 17 -29 -8 l-20 -23 -27 34 c-17 20 -33 31 -40 27 -6 -4 -9 -12 -6 -17 4 -5
1 -9 -4 -9 -6 0 -11 9 -11 20 0 13 7 20 20 20 l20 0 -20 20 c-23 23 -34 26
-27 8z m197 -122 c0 -3 -4 -8 -10 -11 -5 -3 -10 -1 -10 4 0 6 5 11 10 11 6 0
10 -2 10 -4z m-1377 -123 c-7 -2 -19 -2 -25 0 -7 3 -2 5 12 5 14 0 19 -2 13
-5z m1012 -51 c-3 -3 -11 0 -18 7 -9 10 -8 11 6 5 10 -3 15 -9 12 -12z m510
-72 c3 -5 1 -10 -4 -10 -6 0 -11 5 -11 10 0 6 2 10 4 10 3 0 8 -4 11 -10z
m-175 -51 c0 -7 8 -18 18 -25 15 -12 12 -13 -27 -14 -36 0 -42 -2 -32 -14 8
-10 9 -16 1 -21 -5 -3 -10 0 -11 7 0 10 -2 10 -6 1 -7 -18 -33 -16 -33 1 0 8
-3 22 -6 30 -5 12 -2 15 10 10 11 -4 16 -1 16 11 0 11 5 15 15 11 8 -3 15 -1
15 4 0 6 9 10 20 10 11 0 20 -5 20 -11z m-411 -102 c-13 -11 -89 -36 -89 -29
0 4 15 13 33 19 32 10 64 16 56 10z m-306 -34 c-19 -7 -16 -23 5 -24 16 -1 16
-2 0 -6 -10 -2 -18 -10 -18 -18 0 -7 -6 -18 -14 -24 -10 -9 -15 -8 -19 3 -3 8
-1 17 6 20 9 5 9 7 -1 12 -8 4 -5 11 10 25 13 10 28 18 33 18 6 0 4 -3 -2 -6z
m275 -15 c-7 -13 -16 -25 -19 -28 -3 -3 -9 -12 -12 -20 -4 -10 -6 -8 -6 8 -1
12 4 22 9 22 6 0 10 6 10 14 0 12 8 19 28 25 1 1 -3 -9 -10 -21z m-160 -8 c-7
-10 -14 -17 -17 -15 -4 4 18 35 25 35 2 0 -1 -9 -8 -20z m222 0 c-8 -5 -19
-10 -25 -10 -5 0 -3 5 5 10 8 5 20 10 25 10 6 0 3 -5 -5 -10z m20 -20 c0 -5
-5 -10 -11 -10 -5 0 -7 5 -4 10 3 6 8 10 11 10 2 0 4 -4 4 -10z m-164 -57 c-7
-7 -26 7 -26 19 0 6 6 6 15 -2 9 -7 13 -15 11 -17z m105 7 c10 0 19 -4 19 -10
0 -11 -11 -13 -34 -4 -9 3 -16 14 -15 23 0 10 2 11 6 4 2 -7 13 -13 24 -13z
m94 -8 c4 -10 0 -12 -11 -8 -8 3 -20 6 -25 6 -5 0 -9 4 -9 8 0 14 39 8 45 -6z
m-330 -72 c3 -5 1 -10 -4 -10 -6 0 -11 5 -11 10 0 6 2 10 4 10 3 0 8 -4 11
-10z m262 4 c-3 -3 -12 -4 -19 -1 -8 3 -5 6 6 6 11 1 17 -2 13 -5z m-2098
-240 c-12 -21 -25 -32 -27 -26 -4 13 37 76 45 68 3 -3 -5 -22 -18 -42z m751
-390 c0 -2 -12 -4 -27 -4 -21 0 -24 3 -14 9 13 8 41 5 41 -5z m84 0 c19 -19
12 -34 -16 -34 -14 0 -18 5 -14 16 3 9 6 20 6 25 0 13 6 11 24 -7z m-139 -22
c-8 -8 -25 10 -19 20 4 6 9 5 15 -3 4 -7 6 -15 4 -17z m-594 -615 c-5 -14 -14
-28 -19 -31 -13 -8 -1 47 12 56 16 10 18 4 7 -25z m48 -11 c-9 -8 -10 -7 -5 7
3 10 7 24 7 30 1 7 3 4 6 -7 3 -10 -1 -23 -8 -30z m211 34 c0 -5 -7 -10 -15
-10 -8 0 -15 5 -15 10 0 6 7 10 15 10 8 0 15 -4 15 -10z m2514 -73 c14 -10 27
-23 27 -30 5 -44 4 -67 -3 -67 -4 0 -8 -7 -8 -15 0 -8 -9 -15 -21 -15 -11 0
-18 -3 -16 -7 3 -5 -41 -9 -96 -10 -56 -1 -96 1 -89 4 10 4 10 7 -1 17 -23 18
-28 78 -8 105 30 39 165 51 215 18z m-2764 -41 c0 -3 -4 -8 -10 -11 -5 -3 -10
-1 -10 4 0 6 5 11 10 11 6 0 10 -2 10 -4z m270 -1371 c0 -14 -2 -25 -4 -25 -2
0 -6 11 -8 25 -3 14 -1 25 3 25 5 0 9 -11 9 -25z m-1380 -21 c0 -8 -4 -12 -10
-9 -5 3 -10 13 -10 21 0 8 5 12 10 9 6 -3 10 -13 10 -21z m1414 -115 c-3 -5
-1 -9 4 -9 6 0 8 -10 5 -22 -4 -22 -4 -23 11 -4 16 20 16 20 18 0 0 -10 1 -25
1 -31 -1 -7 3 -10 8 -7 5 3 9 -2 9 -10 0 -9 -4 -16 -9 -16 -5 0 -16 -3 -25 -6
-12 -5 -16 1 -17 22 l-1 29 -9 -25 c-6 -19 -7 -15 -3 15 3 23 0 53 -6 69 -5
15 -7 33 -3 39 4 6 10 1 15 -12 4 -13 6 -27 2 -32z m101 31 c-3 -5 -1 -10 6
-10 7 0 10 -3 6 -6 -3 -3 -16 -2 -29 2 -22 7 -22 7 -3 15 27 10 27 10 20 -1z
m1030 -40 c-3 -5 -14 -10 -23 -10 -15 0 -15 2 -2 10 20 13 33 13 25 0z m-947
-35 c-3 -3 -9 2 -12 12 -6 14 -5 15 5 6 7 -7 10 -15 7 -18z m932 -3 c0 -12 -3
-12 -17 -1 -10 7 -20 14 -22 16 -2 1 6 1 18 0 11 -1 21 -8 21 -15z m-690 -43
c0 6 7 11 15 11 8 0 15 -5 15 -11 0 -6 9 -8 21 -4 20 7 21 6 2 -12 -17 -19
-18 -19 -27 -1 -8 16 -11 15 -28 -12 -16 -28 -17 -33 -3 -46 16 -16 19 -27 15
-58 -1 -14 3 -17 15 -13 9 4 14 3 11 -2 -8 -12 -55 -11 -63 2 -3 6 -1 7 5 3 7
-4 12 -2 12 3 0 6 -7 11 -15 11 -11 0 -12 5 -5 26 14 35 12 41 -3 19 -11 -14
-16 -15 -22 -5 -5 8 -4 11 3 6 6 -3 15 9 23 31 9 28 9 38 0 41 -6 2 -8 8 -5
13 3 6 11 5 20 -2 10 -8 14 -8 14 0z m527 -26 c-9 -28 -13 -32 -15 -18 -2 11
-9 26 -16 34 -9 12 -8 13 7 8 9 -3 17 -2 17 3 0 6 4 10 9 10 5 0 4 -17 -2 -37z
m-248 -15 c0 -22 -1 -22 -9 -3 -8 19 -9 19 -9 -2 -1 -13 -6 -23 -13 -23 -6 0
-8 3 -5 7 4 3 1 13 -6 21 -8 11 -8 14 0 9 6 -4 14 -3 18 3 11 18 25 11 24 -12z
m-589 -38 c0 -5 -2 -10 -4 -10 -3 0 -8 5 -11 10 -3 6 -1 10 4 10 6 0 11 -4 11
-10z m555 -20 c-3 -5 -1 -11 5 -15 5 -3 10 1 10 9 0 9 5 16 10 16 12 0 13 -11
2 -26 -13 -20 -38 -12 -40 13 -1 14 2 21 8 18 6 -4 8 -10 5 -15z m-315 6 c0
-3 -4 -8 -10 -11 -5 -3 -10 -1 -10 4 0 6 5 11 10 11 6 0 10 -2 10 -4z m245
-55 c-6 -5 -25 10 -25 20 0 5 6 4 14 -3 8 -7 12 -15 11 -17z m285 -11 c0 -5
-5 -10 -11 -10 -5 0 -7 5 -4 10 3 6 8 10 11 10 2 0 4 -4 4 -10z"/>
<path d="M1501 194 c0 -11 3 -14 6 -6 3 7 2 16 -1 19 -3 4 -6 -2 -5 -13z"/>
<path d="M3361 3834 c0 -11 3 -14 6 -6 3 7 2 16 -1 19 -3 4 -6 -2 -5 -13z"/>
<path d="M722 3692 c4 -12 3 -22 -1 -22 -4 0 -8 -13 -8 -30 0 -18 4 -27 11
-23 7 4 7 1 -1 -8 -15 -19 -19 -48 -10 -80 l7 -26 127 3 c71 2 138 4 151 4 12
0 22 6 22 14 0 22 49 115 73 139 l21 21 -30 8 c-16 4 -105 11 -198 15 l-169 6
5 -21z"/>
<path d="M1206 3652 c1 -17 5 -35 8 -41 4 -5 2 -12 -3 -15 -13 -8 -2 -46 13
-43 6 1 11 -12 11 -33 l0 -35 68 -5 c61 -5 70 -3 87 18 11 12 15 22 10 22 -23
0 -8 19 18 23 22 3 21 4 -10 6 -21 0 -38 -4 -41 -11 -3 -8 -6 -6 -6 5 -1 16 9
21 36 18 6 -1 14 3 18 9 3 5 1 10 -5 10 -6 0 -9 4 -5 10 3 5 12 7 20 3 8 -3
15 0 15 6 0 7 8 7 26 1 16 -7 23 -7 19 0 -9 14 9 12 23 -2 9 -9 12 -8 12 5 0
9 6 16 12 14 7 -1 14 8 16 21 3 18 -1 23 -15 22 -10 -1 -20 -1 -23 0 -7 4 -36
6 -181 14 l-125 8 2 -30z m138 -103 c-8 -14 -24 -10 -24 6 0 9 6 12 15 9 8 -4
12 -10 9 -15z m-54 -3 c0 -11 -19 -15 -25 -6 -3 5 1 10 9 10 9 0 16 -2 16 -4z"/>
<path d="M1571 3643 c22 -28 32 -33 54 -26 11 3 51 6 89 6 43 -1 63 3 55 8
-11 7 -11 9 -1 9 7 0 11 4 8 9 -7 11 -45 3 -65 -13 -12 -9 -13 -8 -9 5 5 13
-5 16 -69 17 -71 2 -75 1 -62 -15z"/>
<path d="M572 3562 c-9 -6 -6 -12 12 -21 27 -15 48 -8 39 14 -6 16 -31 19 -51
7z"/>
<path d="M430 3538 c0 -18 18 -34 28 -24 3 4 -2 14 -11 23 -16 16 -17 16 -17
1z"/>
<path d="M340 3530 c-12 -8 -10 -10 10 -11 14 -1 32 -3 40 -4 21 -2 31 5 24
16 -3 6 -12 5 -22 -3 -12 -10 -16 -10 -19 0 -5 14 -13 15 -33 2z"/>
<path d="M3915 3530 c-3 -5 -1 -10 4 -10 6 0 11 5 11 10 0 6 -2 10 -4 10 -3 0
-8 -4 -11 -10z"/>
<path d="M64 3516 c-4 -11 -12 -13 -31 -5 -13 5 -26 9 -28 9 -2 0 -4 -23 -3
-50 0 -35 5 -53 16 -61 15 -10 15 -10 0 -5 -10 3 -18 1 -18 -4 0 -13 42 -24
49 -12 6 11 54 9 92 -3 14 -5 19 -1 19 10 0 13 6 16 23 11 12 -3 32 -6 45 -6
13 0 22 -6 22 -15 0 -9 9 -15 25 -15 14 0 25 4 25 10 0 5 6 7 13 4 15 -5 21
32 6 41 -5 4 -9 -2 -9 -12 0 -11 -3 -14 -8 -7 -4 6 -29 12 -57 13 -27 2 -61 4
-75 6 -14 2 -33 4 -43 4 -10 1 -16 5 -13 10 3 5 16 7 27 4 19 -5 20 -3 14 18
-4 13 -13 27 -19 31 -7 5 -4 8 7 8 11 0 17 5 14 13 -5 13 -21 14 -51 1 -14 -5
-17 -4 -12 4 4 7 1 12 -9 12 -8 0 -18 -6 -21 -14z m51 -26 c3 -6 -1 -7 -9 -4
-18 7 -21 14 -7 14 6 0 13 -4 16 -10z m-65 -10 c0 -5 -4 -10 -10 -10 -5 0 -10
5 -10 10 0 6 5 10 10 10 6 0 10 -4 10 -10z m235 -90 c-3 -5 -10 -10 -16 -10
-5 0 -9 5 -9 10 0 6 7 10 16 10 8 0 12 -4 9 -10z"/>
<path d="M736 3431 c-7 -11 3 -41 13 -41 13 0 61 25 61 32 0 3 -9 4 -20 1 -11
-3 -26 0 -34 6 -9 7 -17 8 -20 2z"/>
<path d="M354 3405 c3 -8 2 -15 -2 -15 -4 0 -8 -8 -8 -19 0 -11 5 -17 13 -14
7 3 13 9 13 14 0 5 6 9 14 9 15 0 28 24 19 34 -4 3 -17 6 -31 6 -17 0 -23 -4
-18 -15z"/>
<path d="M600 3390 c6 -11 15 -20 20 -20 6 0 5 9 -2 20 -7 11 -16 20 -21 20
-4 0 -3 -9 3 -20z"/>
<path d="M410 3386 c0 -9 7 -16 16 -16 17 0 14 22 -4 28 -7 2 -12 -3 -12 -12z"/>
<path d="M200 3380 c8 -5 22 -10 30 -10 13 0 13 1 0 10 -8 5 -22 10 -30 10
-13 0 -13 -1 0 -10z"/>
<path d="M25 3250 c6 -10 4 -12 -8 -7 -15 5 -17 -1 -17 -48 l0 -55 40 0 c22 0
40 4 40 9 0 6 18 9 40 8 28 -1 40 -6 41 -17 0 -11 2 -11 6 -2 4 10 8 10 19 1
11 -9 14 -8 14 6 0 14 3 15 14 6 9 -8 21 -8 39 -2 22 9 25 8 20 -6 -6 -15 -5
-15 16 -1 16 11 32 14 56 8 18 -4 45 -5 59 -3 14 3 32 0 40 -6 11 -9 15 -5 20
24 10 50 -5 64 -60 60 -24 -1 -47 2 -50 7 -3 5 -24 6 -46 3 -29 -5 -39 -4 -34
4 10 15 -27 14 -42 -1 -10 -10 -15 -10 -20 -1 -8 12 -49 12 -69 0 -5 -3 -13
-4 -16 0 -4 3 -24 7 -46 8 -21 1 -44 6 -51 10 -9 6 -11 4 -5 -5z m22 -96 c-3
-3 -12 -4 -19 -1 -8 3 -5 6 6 6 11 1 17 -2 13 -5z"/>
<path d="M532 3218 c-13 -13 -15 -38 -6 -62 6 -17 44 -23 44 -7 0 5 11 8 25 6
14 -1 25 2 25 7 0 5 9 6 20 3 14 -5 20 -2 20 9 0 14 -24 22 -52 17 -5 0 -7 2
-5 7 2 6 -8 14 -15 11 -21 -6 -37 -5 -33 1 9 14 -11 20 -23 8z"/>
<path d="M880 3219 c0 -5 -4 -8 -8 -5 -5 3 -30 -1 -57 -9 -33 -10 -52 -12 -60
-5 -9 8 -15 6 -19 -6 -10 -26 7 -36 40 -23 16 7 35 11 42 10 23 -4 80 19 86
34 3 9 -1 15 -9 15 -8 0 -15 -5 -15 -11z"/>
<path d="M3755 3080 c-3 -5 -1 -10 4 -10 6 0 11 5 11 10 0 6 -2 10 -4 10 -3 0
-8 -4 -11 -10z"/>
<path d="M3968 3043 c7 -3 16 -2 19 1 4 3 -2 6 -13 5 -11 0 -14 -3 -6 -6z"/>
<path d="M2363 2683 c-12 -2 -27 -11 -33 -19 -7 -8 -18 -14 -26 -14 -20 0 -37
-36 -21 -47 17 -12 38 -10 67 7 17 10 55 15 117 15 79 0 95 -3 122 -23 34 -25
41 -16 14 16 -44 51 -160 83 -240 65z"/>
<path d="M2331 2551 c-8 -5 -20 -7 -28 -4 -7 3 -13 0 -13 -7 0 -6 -4 -9 -8 -6
-13 8 -52 -23 -52 -40 0 -8 3 -13 8 -13 21 4 31 -3 25 -17 -4 -10 1 -17 16
-21 11 -3 21 -10 21 -15 0 -6 -7 -8 -15 -4 -21 8 -19 -17 3 -36 24 -22 168
-43 178 -27 3 5 -10 9 -28 9 -37 0 -79 19 -43 20 16 0 17 2 5 10 -13 8 -12 10
1 15 9 3 27 7 40 9 13 2 37 8 52 15 35 14 54 14 62 1 3 -5 21 -10 38 -10 22 0
28 3 18 9 -7 5 -11 13 -7 19 9 15 -4 42 -20 42 -8 0 -14 5 -14 10 0 6 -7 10
-15 10 -8 0 -15 4 -15 9 0 5 -10 12 -22 16 -39 11 -172 16 -187 6z m23 -67 c8
-20 8 -24 -1 -24 -17 0 -35 19 -29 29 10 16 23 14 30 -5z m43 10 c-3 -3 -12
-4 -19 -1 -8 3 -5 6 6 6 11 1 17 -2 13 -5z m100 -11 c2 -6 -4 -13 -13 -17 -21
-8 -26 -3 -18 18 7 18 25 17 31 -1z"/>
<path d="M2308 2181 c15 -34 32 -61 38 -61 7 0 14 -9 17 -20 3 -12 14 -20 27
-20 11 0 19 -4 15 -9 -3 -5 0 -13 5 -16 16 -10 1 66 -16 86 -8 8 -14 20 -14
25 -1 18 -49 63 -74 70 l-25 6 27 -61z"/>
<path d="M1943 2198 c-36 -26 -170 -191 -184 -225 -7 -20 -3 -102 7 -112 1 -2
7 12 12 30 6 23 5 36 -2 41 -8 6 -8 8 0 8 6 0 31 -14 55 -32 24 -17 54 -32 66
-34 25 -2 42 14 25 25 -22 13 -17 36 7 36 13 0 26 6 28 13 3 7 -3 11 -14 10
-51 -4 -121 3 -137 15 -17 12 -12 20 55 103 41 49 78 94 84 99 15 14 38 45 33
45 -2 0 -18 -10 -35 -22z"/>
<path d="M2243 2092 c-31 -10 -43 -19 -43 -34 0 -10 5 -16 10 -13 6 3 10 14
10 23 0 12 3 13 12 4 18 -18 36 -15 48 9 7 11 10 22 8 23 -2 1 -22 -4 -45 -12z"/>
<path d="M2168 2033 c7 -3 16 -2 19 1 4 3 -2 6 -13 5 -11 0 -14 -3 -6 -6z"/>
<path d="M2384 1972 c9 -15 -42 -22 -139 -20 -140 2 -269 -2 -262 -8 4 -4 26
-7 49 -8 24 -1 49 -5 56 -9 12 -8 52 -9 174 -5 27 1 51 -2 55 -5 11 -12 -40
-58 -59 -54 -10 3 -21 1 -24 -4 -3 -5 -10 -7 -15 -3 -6 3 -18 2 -27 -2 -24
-11 -132 -13 -132 -2 0 4 -11 8 -24 8 -13 0 -26 5 -28 12 -3 8 -6 9 -11 1 -4
-6 15 -22 47 -39 30 -16 52 -32 50 -36 -3 -5 -10 -6 -15 -3 -5 4 -9 -1 -9 -9
0 -18 24 -26 87 -30 71 -4 105 10 101 43 -2 16 2 26 10 26 8 0 20 8 27 18 12
17 14 17 23 1 8 -15 16 -11 64 34 30 29 58 49 63 44 5 -4 5 -2 2 5 -4 6 -3 13
3 15 18 6 -5 25 -39 33 -23 5 -31 4 -27 -3z m-186 -157 c2 -2 -2 -10 -9 -18
-10 -11 -21 -12 -46 -4 -49 15 -43 36 9 30 24 -2 44 -6 46 -8z"/>
<path d="M1336 1885 c-3 -8 -1 -15 4 -15 6 0 10 7 10 15 0 8 -2 15 -4 15 -2 0
-6 -7 -10 -15z"/>
<path d="M1367 1854 c-4 -4 -7 -14 -7 -23 0 -11 3 -12 11 -4 6 6 10 16 7 23
-2 6 -7 8 -11 4z"/>
<path d="M2665 1830 c3 -5 8 -10 11 -10 2 0 4 5 4 10 0 6 -5 10 -11 10 -5 0
-7 -4 -4 -10z"/>
<path d="M2660 1790 c0 -5 5 -10 11 -10 5 0 7 5 4 10 -3 6 -8 10 -11 10 -2 0
-4 -4 -4 -10z"/>
<path d="M2641 1738 c0 -9 -4 -25 -7 -35 -5 -14 -4 -15 5 -7 7 7 11 22 8 35
-2 13 -5 16 -6 7z"/>
<path d="M2226 1433 c-4 -5 -17 -8 -29 -8 -13 0 -26 -10 -34 -25 -12 -23 -13
-23 -13 -4 0 17 -5 20 -25 16 -17 -3 -25 -11 -25 -24 0 -14 5 -18 15 -14 9 3
15 0 15 -9 0 -16 16 -20 24 -6 3 5 17 12 32 15 36 9 71 43 58 56 -6 6 -14 7
-18 3z"/>
<path d="M1421 1074 c0 -11 3 -14 6 -6 3 7 2 16 -1 19 -3 4 -6 -2 -5 -13z"/>
<path d="M1431 1034 c0 -11 3 -14 6 -6 3 7 2 16 -1 19 -3 4 -6 -2 -5 -13z"/>
<path d="M384 1028 c-11 -5 -28 -23 -38 -39 -9 -16 -20 -29 -24 -29 -4 0 -7
-14 -8 -31 -1 -17 2 -27 5 -22 6 8 18 10 111 14 47 2 56 5 56 20 0 11 -18 37
-41 58 -33 32 -44 37 -61 29z"/>
<path d="M1441 984 c0 -11 3 -14 6 -6 3 7 2 16 -1 19 -3 4 -6 -2 -5 -13z"/>
<path d="M1470 846 c0 -8 5 -18 10 -21 6 -3 10 3 10 14 0 12 -4 21 -10 21 -5
0 -10 -6 -10 -14z"/>
<path d="M345 840 c3 -5 11 -10 16 -10 6 0 7 5 4 10 -3 6 -11 10 -16 10 -6 0
-7 -4 -4 -10z"/>
<path d="M2521 833 c0 -12 -4 -30 -7 -40 -5 -17 -5 -17 6 0 6 10 9 28 7 40 -4
22 -4 22 -6 0z"/>
<path d="M2510 754 c0 -8 5 -12 10 -9 6 4 8 11 5 16 -9 14 -15 11 -15 -7z"/>
<path d="M70 535 c0 -8 4 -15 10 -15 5 0 7 7 4 15 -4 8 -8 15 -10 15 -2 0 -4
-7 -4 -15z"/>
<path d="M66 501 c-3 -4 1 -17 8 -27 13 -17 14 -17 9 9 -6 29 -9 32 -17 18z"/>
<path d="M1590 421 c0 -6 4 -13 10 -16 6 -3 7 1 4 9 -7 18 -14 21 -14 7z"/>
<path d="M1693 251 c2 -10 11 -27 22 -37 18 -18 19 -18 12 -1 -4 10 -7 27 -7
38 0 10 -7 19 -15 19 -9 0 -14 -8 -12 -19z"/>
</g>
</svg>
